<?xml version="1.0" encoding="UTF-8" standalone="no"?>
<!DOCTYPE svg PUBLIC "-//W3C//DTD SVG 1.1//EN"
 "http://www.w3.org/Graphics/SVG/1.1/DTD/svg11.dtd">
<!-- Generated by graphviz version 2.40.1 (20161225.0304)
 -->
<!-- Title: G Pages: 1 -->
<svg width="190pt" height="228pt"
 viewBox="0.00 0.00 190.23 228.36" xmlns="http://www.w3.org/2000/svg" xmlns:xlink="http://www.w3.org/1999/xlink">
<g id="graph0" class="graph" transform="scale(1 1) rotate(0) translate(4 224.3556)">
<title>G</title>
<polygon fill="#ffffff" stroke="transparent" points="-4,4 -4,-224.3556 186.227,-224.3556 186.227,4 -4,4"/>
<!-- A -->
<g id="node1" class="node">
<title>A</title>
<ellipse fill="#cccefc" stroke="#000000" cx="85.5814" cy="-76.4938" rx="18" ry="18"/>
</g>
<!-- B -->
<g id="node2" class="node">
<title>B</title>
<ellipse fill="#cccefc" stroke="#000000" cx="164.227" cy="-79.9173" rx="18" ry="18"/>
</g>
<!-- A&#45;&#45;B -->
<g id="edge1" class="edge">
<title>A&#45;&#45;B</title>
<path fill="none" stroke="#000000" d="M103.8219,-77.2879C116.5273,-77.8409 133.4017,-78.5755 146.0854,-79.1276"/>
</g>
<!-- C -->
<g id="node3" class="node">
<title>C</title>
<ellipse fill="#cccefc" stroke="#000000" cx="127.1743" cy="-18" rx="18" ry="18"/>
</g>
<!-- A&#45;&#45;C -->
<g id="edge2" class="edge">
<title>A&#45;&#45;C</title>
<path fill="none" stroke="#000000" d="M96.077,-61.7334C102.3341,-52.9338 110.2555,-41.7936 116.5374,-32.9592"/>
</g>
<!-- D -->
<g id="node4" class="node">
<title>D</title>
<ellipse fill="#cccefc" stroke="#000000" cx="76.2134" cy="-154.6589" rx="18" ry="18"/>
</g>
<!-- A&#45;&#45;D -->
<g id="edge3" class="edge">
<title>A&#45;&#45;D</title>
<path fill="none" stroke="#000000" d="M83.4086,-94.6229C81.8952,-107.2507 79.8852,-124.0219 78.3744,-136.6281"/>
</g>
<!-- B&#45;&#45;C -->
<g id="edge4" class="edge">
<title>B&#45;&#45;C</title>
<path fill="none" stroke="#000000" d="M154.8771,-64.293C149.303,-54.9784 142.2463,-43.1862 136.6502,-33.8347"/>
</g>
<!-- E -->
<g id="node5" class="node">
<title>E</title>
<ellipse fill="#cccefc" stroke="#000000" cx="155.0319" cy="-158.3123" rx="18" ry="18"/>
</g>
<!-- B&#45;&#45;E -->
<g id="edge5" class="edge">
<title>B&#45;&#45;E</title>
<path fill="none" stroke="#000000" d="M162.0943,-98.0998C160.6089,-110.7646 158.6359,-127.5852 157.153,-140.2284"/>
</g>
<!-- D&#45;&#45;E -->
<g id="edge6" class="edge">
<title>D&#45;&#45;E</title>
<path fill="none" stroke="#000000" d="M94.4941,-155.5063C107.2274,-156.0965 124.1388,-156.8803 136.8504,-157.4695"/>
</g>
<!-- F -->
<g id="node6" class="node">
<title>F</title>
<ellipse fill="#cccefc" stroke="#000000" cx="18" cy="-202.3556" rx="18" ry="18"/>
</g>
<!-- D&#45;&#45;F -->
<g id="edge7" class="edge">
<title>D&#45;&#45;F</title>
<path fill="none" stroke="#000000" d="M62.1216,-166.205C52.969,-173.7041 41.0887,-183.4381 31.9621,-190.9159"/>
</g>
</g>
</svg>
