<?xml version="1.0" encoding="UTF-8" standalone="no"?>
<!DOCTYPE svg PUBLIC "-//W3C//DTD SVG 1.1//EN"
 "http://www.w3.org/Graphics/SVG/1.1/DTD/svg11.dtd">
<!-- Generated by graphviz version 2.40.1 (20161225.0304)
 -->
<!-- Title: G Pages: 1 -->
<svg width="332pt" height="44pt"
 viewBox="0.00 0.00 332.00 44.00" xmlns="http://www.w3.org/2000/svg" xmlns:xlink="http://www.w3.org/1999/xlink">
<g id="graph0" class="graph" transform="scale(1 1) rotate(0) translate(4 40)">
<title>G</title>
<polygon fill="#ffffff" stroke="transparent" points="-4,4 -4,-40 328,-40 328,4 -4,4"/>
<!-- 0 -->
<g id="node1" class="node">
<title>0</title>
<polygon fill="#cccefc" stroke="#000000" points="36,-36 0,-36 0,0 36,0 36,-36"/>
</g>
<!-- 1 -->
<g id="node2" class="node">
<title>1</title>
<polygon fill="#cccefc" stroke="#000000" points="108,-36 72,-36 72,0 108,0 108,-36"/>
</g>
<!-- 0&#45;&gt;1 -->
<g id="edge1" class="edge">
<title>0&#45;&gt;1</title>
<path fill="none" stroke="#000000" d="M36.1686,-18C43.869,-18 53.0257,-18 61.5834,-18"/>
<polygon fill="#000000" stroke="#000000" points="61.5868,-21.5001 71.5867,-18 61.5867,-14.5001 61.5868,-21.5001"/>
</g>
<!-- 2 -->
<g id="node3" class="node">
<title>2</title>
<polygon fill="#cccefc" stroke="#000000" points="180,-36 144,-36 144,0 180,0 180,-36"/>
</g>
<!-- 1&#45;&gt;2 -->
<g id="edge2" class="edge">
<title>1&#45;&gt;2</title>
<path fill="none" stroke="#000000" d="M108.1686,-18C115.869,-18 125.0257,-18 133.5834,-18"/>
<polygon fill="#000000" stroke="#000000" points="133.5868,-21.5001 143.5867,-18 133.5867,-14.5001 133.5868,-21.5001"/>
</g>
<!-- 3 -->
<g id="node4" class="node">
<title>3</title>
<polygon fill="#cccefc" stroke="#000000" points="252,-36 216,-36 216,0 252,0 252,-36"/>
</g>
<!-- 2&#45;&gt;3 -->
<g id="edge3" class="edge">
<title>2&#45;&gt;3</title>
<path fill="none" stroke="#000000" d="M180.1686,-18C187.869,-18 197.0257,-18 205.5834,-18"/>
<polygon fill="#000000" stroke="#000000" points="205.5868,-21.5001 215.5867,-18 205.5867,-14.5001 205.5868,-21.5001"/>
</g>
<!-- 4 -->
<g id="node5" class="node">
<title>4</title>
<polygon fill="#cccefc" stroke="#000000" points="324,-36 288,-36 288,0 324,0 324,-36"/>
</g>
<!-- 3&#45;&gt;4 -->
<g id="edge4" class="edge">
<title>3&#45;&gt;4</title>
<path fill="none" stroke="#000000" d="M252.1686,-18C259.869,-18 269.0257,-18 277.5834,-18"/>
<polygon fill="#000000" stroke="#000000" points="277.5868,-21.5001 287.5867,-18 277.5867,-14.5001 277.5868,-21.5001"/>
</g>
</g>
</svg>
