<?xml version="1.0" encoding="UTF-8" standalone="no"?>
<!DOCTYPE svg PUBLIC "-//W3C//DTD SVG 1.1//EN"
 "http://www.w3.org/Graphics/SVG/1.1/DTD/svg11.dtd">
<!-- Generated by graphviz version 2.40.1 (20161225.0304)
 -->
<!-- Title: G Pages: 1 -->
<svg width="233pt" height="260pt"
 viewBox="0.00 0.00 233.00 260.00" xmlns="http://www.w3.org/2000/svg" xmlns:xlink="http://www.w3.org/1999/xlink">
<g id="graph0" class="graph" transform="scale(1 1) rotate(0) translate(4 256)">
<title>G</title>
<polygon fill="#ffffff" stroke="transparent" points="-4,4 -4,-256 229,-256 229,4 -4,4"/>
<!-- 1 -->
<g id="node1" class="node">
<title>1</title>
<ellipse fill="#cccefc" stroke="#000000" cx="99" cy="-234" rx="18" ry="18"/>
</g>
<!-- 2 -->
<g id="node2" class="node">
<title>2</title>
<ellipse fill="#cccefc" stroke="#000000" cx="45" cy="-162" rx="18" ry="18"/>
</g>
<!-- 1&#45;&#45;2 -->
<g id="edge1" class="edge">
<title>1&#45;&#45;2</title>
<path fill="none" stroke="#000000" d="M88.0723,-219.4297C78.7035,-206.938 65.2755,-189.034 55.9115,-176.5486"/>
</g>
<!-- 3 -->
<g id="node3" class="node">
<title>3</title>
<ellipse fill="#cccefc" stroke="#000000" cx="99" cy="-162" rx="18" ry="18"/>
</g>
<!-- 1&#45;&#45;3 -->
<g id="edge2" class="edge">
<title>1&#45;&#45;3</title>
<path fill="none" stroke="#000000" d="M99,-215.8314C99,-205 99,-191.2876 99,-180.4133"/>
</g>
<!-- 4 -->
<g id="node4" class="node">
<title>4</title>
<ellipse fill="#cccefc" stroke="#000000" cx="153" cy="-162" rx="18" ry="18"/>
</g>
<!-- 1&#45;&#45;4 -->
<g id="edge3" class="edge">
<title>1&#45;&#45;4</title>
<path fill="none" stroke="#000000" d="M109.9277,-219.4297C119.2965,-206.938 132.7245,-189.034 142.0885,-176.5486"/>
</g>
<!-- 5 -->
<g id="node5" class="node">
<title>5</title>
<ellipse fill="#cccefc" stroke="#000000" cx="45" cy="-90" rx="18" ry="18"/>
</g>
<!-- 2&#45;&#45;5 -->
<g id="edge4" class="edge">
<title>2&#45;&#45;5</title>
<path fill="none" stroke="#000000" d="M45,-143.8314C45,-133 45,-119.2876 45,-108.4133"/>
</g>
<!-- 6 -->
<g id="node6" class="node">
<title>6</title>
<ellipse fill="#cccefc" stroke="#000000" cx="99" cy="-90" rx="18" ry="18"/>
</g>
<!-- 3&#45;&#45;6 -->
<g id="edge5" class="edge">
<title>3&#45;&#45;6</title>
<path fill="none" stroke="#000000" d="M99,-143.8314C99,-133 99,-119.2876 99,-108.4133"/>
</g>
<!-- 7 -->
<g id="node7" class="node">
<title>7</title>
<ellipse fill="#cccefc" stroke="#000000" cx="153" cy="-90" rx="18" ry="18"/>
</g>
<!-- 4&#45;&#45;7 -->
<g id="edge6" class="edge">
<title>4&#45;&#45;7</title>
<path fill="none" stroke="#000000" d="M153,-143.8314C153,-133 153,-119.2876 153,-108.4133"/>
</g>
<!-- 8 -->
<g id="node8" class="node">
<title>8</title>
<ellipse fill="#cccefc" stroke="#000000" cx="207" cy="-90" rx="18" ry="18"/>
</g>
<!-- 4&#45;&#45;8 -->
<g id="edge7" class="edge">
<title>4&#45;&#45;8</title>
<path fill="none" stroke="#000000" d="M163.9277,-147.4297C173.2965,-134.938 186.7245,-117.034 196.0885,-104.5486"/>
</g>
<!-- 9 -->
<g id="node9" class="node">
<title>9</title>
<ellipse fill="#cccefc" stroke="#000000" cx="18" cy="-18" rx="18" ry="18"/>
</g>
<!-- 5&#45;&#45;9 -->
<g id="edge8" class="edge">
<title>5&#45;&#45;9</title>
<path fill="none" stroke="#000000" d="M38.6014,-72.937C34.2974,-61.4596 28.6471,-46.3922 24.3527,-34.9405"/>
</g>
<!-- 10 -->
<g id="node10" class="node">
<title>10</title>
<ellipse fill="#cccefc" stroke="#000000" cx="72" cy="-18" rx="18" ry="18"/>
</g>
<!-- 5&#45;&#45;10 -->
<g id="edge9" class="edge">
<title>5&#45;&#45;10</title>
<path fill="none" stroke="#000000" d="M51.3986,-72.937C55.7026,-61.4596 61.3529,-46.3922 65.6473,-34.9405"/>
</g>
<!-- 11 -->
<g id="node11" class="node">
<title>11</title>
<ellipse fill="#cccefc" stroke="#000000" cx="207" cy="-18" rx="18" ry="18"/>
</g>
<!-- 8&#45;&#45;11 -->
<g id="edge10" class="edge">
<title>8&#45;&#45;11</title>
<path fill="none" stroke="#000000" d="M207,-71.8314C207,-61 207,-47.2876 207,-36.4133"/>
</g>
</g>
</svg>
